<svg width="890" height="800" viewBox="0 0 890 800" fill="none" xmlns="http://www.w3.org/2000/svg">
<path d="M736.785 374.516L455.05 6.10352e-05H578.361C604.997 6.10352e-05 630.083 12.5167 646.096 33.8146L864.07 323.563C898.123 368.834 898.123 431.165 864.07 476.437L637.235 777.947C624.52 794.847 599.143 794.847 586.427 777.947L475.752 630.808C441.699 585.536 441.699 523.218 475.752 477.947L501.063 444.304L594.891 569.059C603.368 580.331 620.282 580.331 628.759 569.059L736.772 425.47C748.123 410.384 748.123 389.602 736.772 374.516H736.785Z" fill="#FFB700"/>
<path d="M25.5268 323.563L252.335 22.0535C265.063 5.13959 290.441 5.15277 303.156 22.0667L415.619 171.775C449.566 216.954 449.606 279.113 415.738 324.358L390.321 358.305L305.434 245.484L294.639 231.073C286.176 219.775 269.235 219.749 260.745 231.033L152.798 374.53C141.447 389.616 141.447 410.398 152.798 425.484L434.546 800H311.248C284.613 800 259.527 787.483 243.513 766.185L25.5401 476.437C-8.51285 431.166 -8.51285 368.835 25.5401 323.563H25.5268Z" fill="#FF0A67"/>
</svg>
